<?xml version="1.0" standalone="no"?>
<!DOCTYPE svg PUBLIC "-//W3C//DTD SVG 20010904//EN"
 "http://www.w3.org/TR/2001/REC-SVG-20010904/DTD/svg10.dtd">
<svg version="1.0" xmlns="http://www.w3.org/2000/svg"
 width="700.000000pt" height="522.000000pt" viewBox="0 0 700.000000 522.000000"
 preserveAspectRatio="xMidYMid meet">

<g transform="translate(0.000000,522.000000) scale(0.100000,-0.100000)"
fill="#000000" stroke="none">
<path d="M80 4127 c-19 -7 -44 -27 -57 -46 l-23 -34 0 -969 c0 -1070 -4 -1008
63 -1048 31 -19 60 -20 1292 -20 1229 0 1261 1 1289 19 41 27 55 57 56 119 l0
52 73 -53 c39 -29 80 -57 91 -60 20 -8 41 11 394 358 100 99 187 181 191 183
5 2 14 -43 21 -100 12 -95 11 -108 -9 -187 -35 -145 -62 -302 -66 -391 -3 -78
-11 -153 -64 -590 -17 -139 -17 -154 0 -360 10 -118 23 -276 29 -350 21 -274
17 -265 129 -255 48 5 80 12 88 22 8 10 10 108 6 366 l-6 352 62 175 c34 96
64 181 66 188 3 6 11 12 20 12 13 0 15 -18 15 -112 0 -265 11 -990 16 -1065 3
-49 11 -86 19 -93 7 -6 42 -13 78 -17 57 -5 66 -3 75 13 5 11 17 82 26 159 9
78 30 255 46 395 29 240 42 348 90 761 41 353 43 362 62 381 15 15 18 35 18
126 l0 108 95 63 c172 112 200 149 200 261 -1 63 -4 72 -114 285 -63 121 -129
250 -148 287 -28 55 -46 75 -106 119 -131 96 -246 126 -366 95 -121 -31 -202
-92 -254 -193 -18 -34 -278 -320 -589 -648 -31 -33 -86 -91 -122 -130 l-65
-70 -1 913 0 912 -34 38 -34 37 -1259 2 c-958 2 -1266 -1 -1293 -10z m2578
-42 l32 -35 0 -970 c0 -1077 4 -1017 -65 -1046 -29 -12 -225 -14 -1276 -14
-1377 0 -1289 -4 -1322 66 -16 32 -17 119 -17 992 0 942 0 958 20 990 41 67
-46 63 1340 57 l1255 -6 33 -34z m1540 -1544 l21 -29 -24 -22 -23 -22 -3 51
c-2 28 -1 51 2 51 3 0 15 -13 27 -29z m-189 -434 c-56 -48 -93 -60 -133 -43
-73 30 -89 111 -34 166 29 29 36 32 80 28 30 -3 55 0 66 8 15 11 19 6 36 -59
l19 -71 -34 -29z"/>
<path d="M930 3700 c-20 -20 -22 -20 -71 -4 -63 21 -159 15 -215 -14 -64 -33
-98 -66 -129 -127 -58 -115 -29 -267 67 -349 l40 -35 -82 -143 c-45 -79 -90
-156 -100 -173 -10 -16 -56 -96 -103 -177 l-85 -148 1109 0 c610 0 1109 3
1109 6 0 5 -202 302 -320 469 -25 35 -90 130 -145 210 -105 155 -130 177 -169
151 -12 -7 -74 -89 -137 -180 -185 -270 -212 -307 -220 -299 -6 7 -90 148
-159 268 -134 234 -287 498 -306 528 -27 42 -54 47 -84 17z"/>
<path d="M3705 3947 c-91 -24 -141 -61 -151 -113 -6 -32 8 -72 30 -86 6 -4 39
-8 73 -8 80 0 103 -21 103 -93 0 -40 5 -53 29 -78 25 -24 37 -29 80 -29 70 0
91 -22 91 -94 0 -96 45 -100 137 -11 l55 53 -4 69 c-2 49 -9 77 -25 98 -19 27
-19 33 -7 50 35 47 3 124 -72 176 -93 63 -238 92 -339 66z"/>
<path d="M3282 283 c-39 -19 -67 -56 -77 -100 l-7 -33 196 0 196 0 0 75 0 75
-137 0 c-107 0 -145 -4 -171 -17z"/>
<path d="M3614 126 c-33 -33 -44 -51 -44 -75 l0 -31 190 0 190 0 0 75 0 75
-146 0 -147 0 -43 -44z"/>
</g>
</svg>
