<?xml version="1.0" standalone="no"?>
<!DOCTYPE svg PUBLIC "-//W3C//DTD SVG 20010904//EN"
 "http://www.w3.org/TR/2001/REC-SVG-20010904/DTD/svg10.dtd">
<svg version="1.0" xmlns="http://www.w3.org/2000/svg"
 width="512.000000pt" height="512.000000pt" viewBox="0 0 512.000000 512.000000"
 preserveAspectRatio="xMidYMid meet">

<g transform="translate(0.000000,512.000000) scale(0.100000,-0.100000)"
fill="#000000" stroke="none">
<path d="M170 4121 c0 -5 41 -105 91 -223 294 -691 482 -1133 646 -1518 102
-239 225 -527 273 -640 48 -113 138 -325 201 -473 l114 -267 373 2 373 3 38
90 c262 616 381 890 387 888 4 -1 78 -170 165 -375 l159 -373 -50 -116 c-27
-64 -50 -119 -50 -122 0 -4 164 -7 366 -7 l365 0 26 58 c14 31 64 147 110 257
139 327 204 481 568 1335 191 448 385 903 430 1010 46 107 108 254 139 327 31
73 56 135 56 138 0 3 -165 5 -367 5 l-368 -1 -47 -112 c-67 -160 -296 -700
-387 -912 -43 -99 -154 -359 -247 -577 -93 -219 -171 -398 -174 -398 -3 0 -61
132 -129 293 -68 160 -208 490 -311 732 -104 242 -240 562 -303 710 l-114 270
-373 3 c-297 2 -371 0 -367 -10 3 -7 123 -289 266 -626 144 -337 261 -619 261
-627 0 -7 -61 -156 -135 -331 -219 -515 -280 -654 -286 -654 -6 0 -39 75 -234
535 -70 165 -194 455 -275 645 -80 190 -216 508 -301 707 l-154 363 -367 0
c-215 0 -368 -4 -368 -9z"/>
</g>
</svg>
